<svg xmlns="http://www.w3.org/2000/svg" xmlns:xlink="http://www.w3.org/1999/xlink" width="500" zoomAndPan="magnify" viewBox="0 0 375 374.999991" height="500" preserveAspectRatio="xMidYMid meet" version="1.0"><defs><clipPath id="590312c253"><path d="M 162.191406 6.984375 L 212.917969 6.984375 L 212.917969 55.988281 L 162.191406 55.988281 Z M 162.191406 6.984375 " clip-rule="nonzero"/></clipPath><clipPath id="26de91b1c1"><path d="M 179.441406 6.984375 L 195.558594 6.984375 C 200.132812 6.984375 204.519531 8.804688 207.753906 12.039062 C 210.992188 15.273438 212.808594 19.660156 212.808594 24.234375 L 212.808594 38.738281 C 212.808594 43.3125 210.992188 47.699219 207.753906 50.9375 C 204.519531 54.171875 200.132812 55.988281 195.558594 55.988281 L 179.441406 55.988281 C 174.867188 55.988281 170.480469 54.171875 167.246094 50.9375 C 164.007812 47.699219 162.191406 43.3125 162.191406 38.738281 L 162.191406 24.234375 C 162.191406 19.660156 164.007812 15.273438 167.246094 12.039062 C 170.480469 8.804688 174.867188 6.984375 179.441406 6.984375 Z M 179.441406 6.984375 " clip-rule="nonzero"/></clipPath><clipPath id="f2fcc326a0"><path d="M 0 0 L 374.25 0 L 374.25 375 L 0 375 Z M 0 0 " clip-rule="nonzero"/></clipPath></defs><rect x="-37.5" width="450" fill="#ffffff" y="-37.499999" height="449.999989" fill-opacity="1"/><rect x="-37.5" width="450" fill="#040114" y="-37.499999" height="449.999989" fill-opacity="1"/><path stroke-linecap="butt" transform="matrix(0.740338, -0.119996, 0.119996, 0.740338, 187.259935, 24.054624)" fill="none" stroke-linejoin="miter" d="M 0.000126808 1.999825 L 71.156484 1.999061 " stroke="#040114" stroke-width="4" stroke-opacity="1" stroke-miterlimit="4"/><g clip-path="url(#590312c253)"><g clip-path="url(#26de91b1c1)"><path fill="#000000" d="M 162.191406 6.984375 L 212.726562 6.984375 L 212.726562 55.988281 L 162.191406 55.988281 Z M 162.191406 6.984375 " fill-opacity="1" fill-rule="nonzero"/></g></g><g clip-path="url(#f2fcc326a0)"><path fill="#ffffff" d="M 365.835938 133.238281 L 365.800781 133.125 C 365.792969 133.109375 365.800781 133.089844 365.792969 133.070312 L 361.261719 119.941406 L 361.230469 119.851562 L 361.109375 119.5 L 361.027344 119.441406 L 340.863281 78.703125 L 310.339844 45.289062 L 310.25 45.222656 C 310.222656 45.195312 310.203125 45.160156 310.171875 45.136719 L 297.636719 35.851562 L 297.578125 35.828125 L 262.765625 14.953125 L 248.078125 9.429688 L 228.757812 5.476562 L 205.398438 0.789062 L 193.621094 -0.308594 L 181.109375 -0.359375 L 168.589844 0.621094 L 157.035156 2.542969 L 147.023438 5.3125 L 115.628906 14.253906 L 100.933594 20.828125 L 67.71875 44.492188 L 55.246094 54.636719 C 55.109375 54.75 55.011719 54.886719 54.9375 55.03125 L 27.128906 90.558594 L 10.0625 132.886719 L 10.035156 132.910156 L 5.273438 146.871094 C 5.21875 147.035156 5.207031 147.199219 5.21875 147.359375 L 0 193.695312 L 0.0117188 193.773438 C 0.00390625 193.949219 0.0273438 194.121094 0.09375 194.277344 L 7.5625 240.5625 L 27.300781 283.242188 L 27.269531 283.328125 L 34.289062 294.484375 L 63.933594 329.023438 L 64.042969 329.148438 L 102.148438 353.996094 L 102.179688 354.046875 L 102.464844 354.199219 L 102.464844 354.203125 L 112.140625 359.394531 C 112.292969 359.476562 112.453125 359.515625 112.617188 359.527344 L 151.917969 370.558594 L 159.683594 372.695312 L 169.992188 374.199219 L 181.75 374.894531 L 194.335938 374.773438 L 206.933594 373.84375 L 218.714844 372.164062 L 228.792969 369.863281 L 236.71875 367.046875 L 236.734375 367.039062 L 274.675781 352.789062 L 274.777344 352.726562 C 274.8125 352.710938 274.847656 352.707031 274.878906 352.6875 L 284.460938 346.792969 L 284.597656 346.707031 L 284.847656 346.554688 L 284.890625 346.480469 L 320.460938 318.765625 L 320.59375 318.660156 L 347.203125 281.929688 C 347.203125 281.925781 347.207031 281.925781 347.207031 281.921875 C 347.210938 281.914062 347.214844 281.910156 347.21875 281.902344 L 354.289062 270.25 L 354.226562 270.097656 L 370.496094 226.300781 L 370.503906 226.1875 C 370.539062 226.066406 370.542969 225.945312 370.535156 225.816406 L 374.523438 179.210938 Z M 363.53125 133.761719 L 369.445312 165.054688 L 369.027344 164.761719 L 362.894531 131.910156 Z M 207.085938 350.660156 L 207.101562 350.660156 L 216.582031 351.242188 L 196.984375 365.488281 Z M 195.160156 366.070312 L 195.042969 350.765625 L 205.648438 350.675781 Z M 242.691406 319.777344 L 260.597656 282.855469 L 286.730469 287.082031 L 261.191406 322.652344 Z M 259.15625 324.714844 L 229.488281 350.613281 L 229.429688 350.59375 L 220.484375 349.246094 L 241.390625 321.960938 Z M 125.019531 285.910156 L 108.988281 243.25 L 147.742188 237.371094 L 156.726562 281.195312 Z M 157.292969 283.492188 L 168.125 320.269531 L 146.019531 323.503906 L 126.09375 288.132812 Z M 186.671875 88.332031 L 233.40625 88.386719 L 236.945312 131.652344 L 188.394531 131.679688 Z M 189.039062 181.542969 L 141.910156 185.117188 L 138.660156 137.796875 L 187.304688 134.078125 Z M 187.214844 131.722656 L 138.585938 135.4375 L 138.683594 91.976562 L 185.492188 88.371094 Z M 140.738281 185.246094 L 97.144531 192.003906 L 92.507812 145.050781 L 137.488281 137.933594 Z M 107.128906 241.203125 L 74.144531 249.382812 L 59.703125 203.902344 L 96.367188 194.558594 Z M 97.523438 194.328125 L 140.976562 187.59375 L 147.351562 235.042969 L 108.289062 240.972656 Z M 142.148438 187.464844 L 189.121094 183.902344 L 190.726562 231.734375 L 148.523438 234.914062 Z M 188.484375 134.035156 L 237.046875 134.011719 L 237.269531 181.390625 L 190.21875 181.5 Z M 238.375 183.792969 L 281.613281 187.113281 L 274.097656 234.371094 L 235.222656 231.558594 Z M 238.226562 134.066406 L 282.996094 137.714844 L 281.832031 184.769531 L 238.449219 181.433594 Z M 282.777344 187.265625 L 319.136719 193.714844 L 307.988281 240.070312 L 275.265625 234.523438 Z M 283.003906 184.910156 L 284.164062 137.882812 L 321.792969 144.851562 L 319.476562 191.390625 Z M 284.074219 135.464844 L 278.878906 92.339844 L 315.078125 99.300781 L 321.636719 142.433594 Z M 282.875 135.339844 L 238.132812 131.695312 L 234.59375 88.453125 L 277.675781 92.140625 Z M 234.292969 86.0625 L 227.8125 50.269531 L 266.167969 53.683594 L 277.140625 89.730469 Z M 233.089844 86.027344 L 186.570312 85.972656 L 184.996094 50.078125 L 226.605469 50.1875 Z M 185.390625 86.015625 L 138.804688 89.601562 L 142.144531 53.347656 L 183.816406 50.117188 Z M 137.613281 89.71875 L 94.578125 96.648438 L 102.453125 59.804688 L 140.949219 53.507812 Z M 137.507812 92.121094 L 137.40625 135.5625 L 92.453125 142.675781 L 94.234375 99.09375 Z M 91.261719 142.886719 L 53.398438 152.785156 L 56.585938 109.128906 L 93.042969 99.382812 Z M 91.347656 145.300781 L 95.976562 192.226562 L 59.210938 201.59375 L 53.417969 155.222656 Z M 73.023438 249.753906 L 48.484375 259.492188 L 31.378906 215.429688 L 58.59375 204.273438 Z M 73.9375 251.921875 L 95.921875 293.019531 L 75.945312 300.703125 L 49.601562 261.589844 Z M 75.09375 251.582031 L 107.808594 243.460938 L 123.851562 286.152344 L 97.050781 292.628906 Z M 124.851562 288.335938 L 144.808594 323.761719 L 126.160156 328.167969 L 98.507812 294.707031 Z M 146.183594 325.859375 L 146.234375 325.851562 L 168.328125 351.386719 L 159.429688 353.445312 L 159.242188 353.511719 L 128.324219 330.082031 Z M 147.621094 325.652344 L 168.925781 322.539062 L 180.613281 349.496094 L 169.679688 351.074219 L 169.628906 351.085938 Z M 158.488281 283.378906 L 192.21875 280.859375 L 193.210938 318.351562 L 169.308594 320.128906 Z M 157.902344 281.058594 L 148.921875 237.246094 L 190.800781 234.09375 L 192.152344 278.496094 Z M 190.300781 183.859375 L 237.195312 183.746094 L 234.046875 231.511719 L 191.90625 231.691406 Z M 234.980469 233.90625 L 273.542969 236.695312 L 260.273438 280.449219 L 228.714844 278.296875 Z M 261.457031 280.609375 L 274.734375 236.820312 L 307.1875 242.320312 L 288.054688 284.917969 Z M 308.355469 242.570312 L 332.40625 250.265625 L 308.921875 291.292969 L 289.207031 285.207031 Z M 309.128906 240.335938 L 320.269531 194.003906 L 347.167969 202.984375 L 333.363281 248.09375 Z M 320.636719 191.636719 L 322.957031 145.199219 L 350.742188 154.84375 L 347.582031 200.632812 Z M 322.855469 142.664062 L 316.339844 99.730469 L 342.871094 109.238281 L 343.03125 109.355469 L 350.535156 152.269531 Z M 315.90625 97.066406 L 315.660156 97.019531 L 301.15625 60.875 L 324.273438 69.363281 L 324.882812 69.8125 L 341.945312 106.398438 Z M 314.300781 96.757812 L 278.398438 89.84375 L 267.476562 53.929688 L 299.496094 60.269531 L 299.664062 60.328125 Z M 266.660156 51.363281 L 266.398438 51.339844 L 251.046875 25.320312 L 276.292969 30.417969 L 276.945312 30.660156 L 297.839844 57.546875 Z M 264.972656 51.210938 L 227.222656 47.851562 L 218.523438 22.152344 L 249.289062 24.964844 L 249.488281 25.003906 Z M 225.972656 47.828125 L 184.882812 47.722656 L 183.578125 21.925781 L 217.242188 22.046875 Z M 183.441406 19.566406 L 182.484375 5.039062 L 205.753906 5.136719 L 215.917969 19.683594 Z M 183.703125 47.761719 L 142.5625 50.949219 L 148.695312 24.585938 L 182.398438 21.964844 Z M 141.328125 51.058594 L 103.414062 57.253906 L 116.367188 29.929688 L 116.539062 29.882812 L 147.460938 24.765625 Z M 102 57.488281 L 101.902344 57.503906 L 70.347656 66.085938 L 88.828125 37.617188 L 89.417969 37.355469 L 114.867188 30.34375 Z M 101.171875 60.140625 L 93.324219 96.867188 L 57.160156 106.53125 L 68.78125 68.984375 L 68.921875 68.917969 Z M 55.8125 106.890625 L 55.769531 106.902344 L 29.234375 118.367188 L 43.421875 80.351562 L 43.949219 79.925781 L 67.347656 69.613281 Z M 55.367188 109.636719 L 52.199219 153.132812 L 24.199219 164.9375 L 28.394531 121.347656 L 28.523438 121.25 Z M 52.292969 155.644531 L 58.074219 201.945312 L 30.796875 213.117188 L 24.1875 167.503906 Z M 29.683594 213.667969 L 13.730469 225.578125 L 6.757812 181.367188 L 6.957031 180.792969 L 23.125 168.28125 Z M 14.390625 228.027344 L 30.371094 216.054688 L 47.441406 260.0625 L 32.964844 270.46875 L 14.378906 228.054688 Z M 48.546875 262.136719 L 74.929688 301.308594 L 63.066406 309.503906 L 34.167969 272.511719 Z M 76.457031 303.085938 L 110.082031 334.441406 L 101.828125 339.921875 L 64.792969 311.175781 Z M 77.628906 302.585938 L 97.246094 295.03125 L 124.980469 328.597656 L 111.105469 333.78125 Z M 126.699219 330.464844 L 126.851562 330.429688 L 157.925781 353.992188 L 151.539062 356.320312 L 151.367188 356.429688 L 113.53125 335.394531 Z M 152.476562 358.492188 L 153.003906 358.296875 L 181.292969 365.289062 L 149.625 360.335938 Z M 154.992188 357.570312 L 160.03125 355.730469 L 160.636719 355.589844 L 185.46875 365.101562 Z M 162.695312 355.113281 L 170.066406 353.402344 L 170.515625 353.335938 L 189.332031 365.320312 Z M 172.273438 353.082031 L 181.792969 351.710938 L 181.839844 351.707031 L 192.226562 365.765625 Z M 181.835938 349.34375 L 170.164062 322.429688 L 193.265625 320.714844 L 193.832031 348.453125 Z M 191.980469 234.050781 L 233.792969 233.871094 L 227.527344 278.25 L 193.332031 278.453125 Z M 228.28125 280.632812 L 259.335938 282.746094 L 241.464844 319.597656 L 219.457031 318.183594 Z M 239.976562 321.867188 L 219.152344 349.046875 L 219.074219 349.035156 L 208.226562 348.367188 L 218.761719 320.5 Z M 218.433594 351.355469 L 218.824219 351.382812 L 226.128906 352.476562 L 199.96875 364.777344 Z M 228.234375 352.792969 L 228.855469 352.886719 L 233.804688 354.296875 L 203.84375 364.261719 Z M 235.816406 354.871094 L 236.339844 355.019531 L 239.136719 356.617188 L 208.015625 364.117188 Z M 230.839844 351.003906 L 260.683594 324.953125 L 260.824219 324.972656 L 273.824219 328.804688 L 237.3125 352.878906 Z M 262.394531 322.976562 L 288.007812 287.308594 L 307.402344 293.253906 L 276.089844 327.050781 Z M 308.613281 293.683594 L 320.046875 300.777344 L 285.269531 332.386719 L 277.195312 327.597656 Z M 310.007812 291.773438 L 333.488281 250.75 L 347.605469 259.914062 L 321.632812 298.980469 Z M 334.445312 248.554688 L 348.222656 203.570312 L 363.855469 214.160156 L 363.898438 214.277344 L 348.648438 257.777344 Z M 348.71875 201.054688 L 351.871094 155.59375 L 367.683594 166.703125 L 367.957031 167.480469 L 364.382812 211.664062 Z M 360.28125 124.34375 L 367.667969 163.808594 L 352.082031 152.855469 L 351.945312 152.761719 L 351.789062 152.707031 L 344.40625 110.347656 L 359.121094 120.976562 Z M 356.9375 116.488281 L 343.984375 107.128906 L 343.480469 106.949219 L 326.863281 71.269531 L 338.945312 80.15625 Z M 308.675781 46.96875 L 330.925781 71.324219 L 325.402344 67.261719 L 324.3125 66.863281 L 303.09375 42.832031 Z M 298.546875 39.464844 L 322.023438 66.023438 L 300.222656 58.019531 L 299.574219 57.890625 L 279.046875 31.441406 L 296.5 37.945312 Z M 261.640625 17.035156 L 285.464844 31.316406 L 277.03125 28.171875 L 275.441406 27.851562 L 254.835938 14.484375 Z M 247.335938 11.675781 L 249.710938 12.5625 L 272.363281 27.226562 L 249.695312 22.636719 L 248.890625 22.5625 L 231.722656 8.492188 Z M 228.292969 7.792969 L 229.242188 7.984375 L 246.792969 22.371094 L 217.46875 19.691406 L 217.332031 19.691406 L 207.273438 5.253906 L 222.859375 6.703125 Z M 204.992188 3.117188 L 211.878906 4.5 L 206.1875 3.972656 L 202.515625 2.886719 Z M 193.507812 2.050781 L 196.433594 2.320312 L 201.921875 3.941406 L 182.351562 3.859375 L 182.015625 2.003906 Z M 182.261719 19.609375 L 149.730469 22.140625 L 158.003906 6.894531 L 181.304688 5.078125 Z M 166.480469 3.363281 L 168.875 2.960938 L 180.820312 2.027344 L 181.164062 3.90625 L 161.355469 5.453125 Z M 157.484375 4.863281 L 161.191406 4.242188 L 157.472656 5.761719 L 149.421875 7.097656 Z M 139.230469 9.988281 L 156.542969 7.109375 L 148.328125 22.25 L 148.167969 22.261719 L 118.742188 27.125 L 134.777344 11.257812 Z M 116.359375 16.503906 L 132.421875 11.929688 L 116.730469 27.457031 L 116.09375 27.5625 L 92.933594 33.9375 L 114.269531 17.4375 Z M 102.007812 22.933594 L 109.695312 19.488281 L 89.976562 34.753906 L 88.703125 35.101562 L 78.703125 39.558594 Z M 69.089844 46.421875 L 86.84375 38.503906 L 68.636719 66.550781 L 68.214844 66.664062 L 45.878906 76.496094 L 67.429688 47.773438 Z M 56.839844 56.386719 L 58.53125 55.011719 L 63.640625 50.851562 L 43.671875 77.46875 L 42.855469 77.828125 L 35.382812 83.832031 Z M 29.140625 91.878906 L 41.617188 81.808594 L 27.730469 119.019531 L 27.441406 119.144531 L 13.800781 129.933594 Z M 11.324219 136.445312 L 12.046875 134.328125 L 27.109375 122.367188 L 22.960938 165.472656 L 6.78125 177.945312 Z M 7.550781 147.511719 L 9.574219 141.578125 L 5.484375 178.945312 L 4.957031 179.355469 L 3.519531 183.480469 Z M 2.386719 193.933594 L 5.949219 183.691406 L 12.660156 226.375 L 12.414062 226.558594 L 9.140625 235.550781 Z M 9.980469 240.160156 L 13.804688 229.640625 L 31.988281 271.171875 L 31.984375 271.175781 L 28.488281 280.183594 Z M 31.777344 286.058594 L 29.898438 283.074219 L 33.558594 273.652344 L 62.210938 310.328125 L 58.933594 318.132812 Z M 60.859375 319.648438 L 64.042969 312.066406 L 101.082031 340.835938 L 98.710938 346.03125 L 61.1875 320.175781 Z M 65.695312 327.40625 L 62.730469 322.648438 L 98.210938 347.121094 L 98.113281 347.332031 L 99.332031 349.34375 Z M 113.144531 357.253906 L 111.542969 356.394531 L 126.769531 361.066406 Z M 106.167969 353.507812 L 103.867188 352.273438 L 101.691406 348.683594 L 144.285156 363.898438 L 145.207031 365.488281 Z M 144.691406 362.789062 L 100.808594 347.113281 L 103.128906 342.039062 L 145.78125 360.601562 Z M 104.164062 341.199219 L 111.992188 335.96875 L 112.082031 335.9375 L 150.238281 357.152344 L 146.421875 359.59375 Z M 148.039062 361.359375 L 148.132812 361.296875 L 177.546875 365.898438 L 147.09375 363.261719 Z M 148.152344 365.871094 L 147.34375 364.46875 L 175.128906 366.871094 L 148.753906 366.195312 Z M 152.675781 368.316406 L 151.007812 367.414062 L 175.070312 368.042969 L 154.28125 368.757812 Z M 160.242188 370.398438 L 158.09375 369.808594 L 177.546875 369.140625 L 162.402344 370.714844 Z M 170.230469 371.851562 L 167.164062 371.40625 L 182.890625 369.773438 L 172.230469 371.96875 Z M 181.808594 372.535156 L 176.777344 372.238281 L 189.410156 369.632812 L 182.953125 372.523438 Z M 193.730469 372.421875 L 185.90625 372.496094 L 193.9375 368.898438 Z M 183.230469 351.605469 L 193.863281 350.816406 L 193.980469 366.152344 Z M 193.398438 280.8125 L 227.074219 280.609375 L 218.261719 318.128906 L 194.390625 318.308594 Z M 217.507812 320.492188 L 206.988281 348.304688 L 195.011719 348.410156 L 194.445312 320.664062 Z M 194.914062 372.367188 L 195.125 368.804688 L 202.820312 371.78125 Z M 206.679688 371.496094 L 205.570312 371.578125 L 199.324219 369.164062 L 211.835938 370.761719 Z M 218.285156 369.84375 L 216.242188 370.132812 L 205.8125 368.800781 L 221.335938 369.144531 Z M 228.199219 367.578125 L 226.050781 368.070312 L 211.285156 367.742188 L 230.335938 366.816406 Z M 235.808594 364.863281 L 234.171875 365.449219 L 213.898438 366.433594 L 237.40625 363.871094 Z M 240.410156 362.011719 L 239.730469 362.433594 L 213.851562 365.261719 L 241.207031 360.605469 Z M 211.605469 364.460938 L 240.632812 357.46875 L 240.664062 357.488281 L 241.59375 359.34375 Z M 238.480469 353.523438 L 275.304688 329.242188 L 275.378906 329.265625 L 283.074219 333.828125 L 242.1875 355.636719 Z M 273.738281 350.617188 L 267.101562 353.113281 L 274.535156 350.128906 Z M 283.109375 344.851562 L 280.464844 346.476562 L 243.511719 361.328125 L 244.421875 359.71875 L 244.417969 359.710938 L 285.238281 341.242188 Z M 286.28125 339.476562 L 243.898438 358.671875 L 242.859375 356.59375 L 284.089844 334.625 L 286.296875 339.445312 Z M 318.839844 317.035156 L 288.148438 340.957031 L 288.960938 339.582031 L 288.828125 339.296875 L 321.488281 312.644531 Z M 323.300781 309.644531 L 288.320312 338.1875 L 286.0625 333.261719 L 320.792969 301.695312 L 323.789062 308.832031 Z M 348.042969 275.992188 L 325.652344 307.164062 L 322.539062 299.75 L 348.214844 261.128906 L 351.664062 270.019531 Z M 352.953125 266.808594 L 349.71875 258.472656 L 349.667969 258.4375 L 364.539062 216.027344 L 368.128906 225.886719 Z M 368.664062 220.453125 L 365.8125 212.632812 L 365.488281 212.410156 L 368.917969 170.226562 L 372.136719 179.425781 Z M 368.664062 220.453125 " fill-opacity="1" fill-rule="nonzero"/></g></svg>