<svg xmlns="http://www.w3.org/2000/svg" xmlns:xlink="http://www.w3.org/1999/xlink" width="500" zoomAndPan="magnify" viewBox="0 0 375 374.999991" height="500" preserveAspectRatio="xMidYMid meet" version="1.0"><defs><clipPath id="7b58464958"><path d="M 162.191406 6.984375 L 212.917969 6.984375 L 212.917969 55.988281 L 162.191406 55.988281 Z M 162.191406 6.984375 " clip-rule="nonzero"/></clipPath><clipPath id="e2d5dd158e"><path d="M 179.441406 6.984375 L 195.558594 6.984375 C 200.132812 6.984375 204.519531 8.804688 207.753906 12.039062 C 210.992188 15.273438 212.808594 19.660156 212.808594 24.234375 L 212.808594 38.738281 C 212.808594 43.3125 210.992188 47.699219 207.753906 50.9375 C 204.519531 54.171875 200.132812 55.988281 195.558594 55.988281 L 179.441406 55.988281 C 174.867188 55.988281 170.480469 54.171875 167.246094 50.9375 C 164.007812 47.699219 162.191406 43.3125 162.191406 38.738281 L 162.191406 24.234375 C 162.191406 19.660156 164.007812 15.273438 167.246094 12.039062 C 170.480469 8.804688 174.867188 6.984375 179.441406 6.984375 Z M 179.441406 6.984375 " clip-rule="nonzero"/></clipPath></defs><rect x="-37.5" width="450" fill="#ffffff" y="-37.499999" height="449.999989" fill-opacity="1"/><rect x="-37.5" width="450" fill="#040114" y="-37.499999" height="449.999989" fill-opacity="1"/><path stroke-linecap="butt" transform="matrix(0.740338, -0.119996, 0.119996, 0.740338, 187.259935, 24.054624)" fill="none" stroke-linejoin="miter" d="M 0.000126808 1.999825 L 71.156484 1.999061 " stroke="#040114" stroke-width="4" stroke-opacity="1" stroke-miterlimit="4"/><g clip-path="url(#7b58464958)"><g clip-path="url(#e2d5dd158e)"><path fill="#000000" d="M 162.191406 6.984375 L 212.726562 6.984375 L 212.726562 55.988281 L 162.191406 55.988281 Z M 162.191406 6.984375 " fill-opacity="1" fill-rule="nonzero"/></g></g><path fill="#ffffff" d="M 374.855469 173.773438 C 374.863281 173.636719 374.835938 173.503906 374.792969 173.378906 C 374.792969 173.371094 374.796875 173.363281 374.792969 173.355469 L 337.421875 75.175781 C 337.417969 75.160156 337.402344 75.15625 337.398438 75.140625 C 337.335938 74.996094 337.25 74.859375 337.117188 74.753906 L 254.9375 9.351562 C 254.808594 9.246094 254.652344 9.171875 254.480469 9.140625 C 254.46875 9.140625 254.457031 9.136719 254.445312 9.136719 L 187.367188 0.0117188 C 187.234375 -0.0078125 187.09375 0.00390625 186.964844 0.0390625 L 154.996094 9.128906 L 154.085938 9.128906 C 153.902344 9.128906 153.730469 9.179688 153.582031 9.269531 C 153.578125 9.269531 153.578125 9.269531 153.578125 9.269531 L 152.761719 9.761719 L 74.074219 32.140625 C 74.046875 32.148438 74.03125 32.167969 74.007812 32.175781 C 73.902344 32.214844 73.808594 32.269531 73.71875 32.34375 C 73.683594 32.375 73.648438 32.402344 73.617188 32.433594 C 73.601562 32.453125 73.578125 32.460938 73.5625 32.484375 L 4.652344 121.984375 C 4.628906 122.011719 4.625 122.042969 4.609375 122.074219 C 4.582031 122.113281 4.554688 122.148438 4.535156 122.191406 C 4.523438 122.21875 4.519531 122.246094 4.511719 122.273438 C 4.492188 122.328125 4.484375 122.382812 4.476562 122.4375 C 4.46875 122.46875 4.453125 122.496094 4.453125 122.53125 L 0.113281 201.242188 C 0.109375 201.3125 0.113281 201.382812 0.121094 201.453125 L 6.476562 241.261719 C 6.484375 241.3125 6.511719 241.355469 6.527344 241.410156 C 6.535156 241.441406 6.535156 241.476562 6.546875 241.507812 C 6.550781 241.515625 6.5625 241.523438 6.566406 241.53125 C 6.570312 241.542969 6.570312 241.554688 6.574219 241.5625 L 38.65625 302.703125 C 38.710938 302.808594 38.785156 302.902344 38.875 302.984375 L 76.503906 336.265625 C 76.566406 336.335938 76.632812 336.394531 76.707031 336.445312 L 120.21875 365.785156 C 120.339844 365.867188 120.476562 365.917969 120.617188 365.941406 L 188.882812 376.5625 L 188.894531 376.5625 C 188.902344 376.5625 188.902344 376.566406 188.90625 376.566406 C 188.957031 376.574219 189.007812 376.578125 189.058594 376.578125 C 189.128906 376.578125 189.195312 376.570312 189.261719 376.554688 C 189.261719 376.554688 189.261719 376.554688 189.265625 376.554688 C 189.265625 376.554688 189.269531 376.554688 189.269531 376.554688 C 189.269531 376.554688 189.269531 376.554688 189.273438 376.550781 C 189.273438 376.550781 189.273438 376.550781 189.277344 376.550781 C 189.28125 376.550781 189.285156 376.550781 189.292969 376.546875 C 189.296875 376.550781 189.300781 376.546875 189.296875 376.546875 C 189.296875 376.546875 189.300781 376.546875 189.300781 376.546875 L 189.304688 376.542969 C 189.308594 376.542969 189.308594 376.542969 189.308594 376.542969 C 189.308594 376.542969 189.3125 376.542969 189.3125 376.542969 C 189.3125 376.542969 189.316406 376.539062 189.316406 376.539062 C 189.320312 376.539062 189.324219 376.539062 189.328125 376.535156 L 300.878906 343.917969 C 300.921875 343.90625 300.945312 343.867188 300.980469 343.847656 C 301.089844 343.800781 301.175781 343.738281 301.257812 343.65625 C 301.296875 343.621094 301.351562 343.609375 301.382812 343.570312 L 369.25 254.019531 C 369.355469 253.875 369.40625 253.714844 369.425781 253.546875 C 369.429688 253.527344 369.445312 253.511719 369.449219 253.492188 Z M 367.539062 252.648438 L 338.1875 260.070312 L 372.5 179.445312 Z M 248.4375 241.226562 L 140.285156 203.148438 L 221.855469 144.378906 Z M 221.859375 141.207031 L 140.519531 87.972656 L 246.277344 57.699219 Z M 220.695312 142.792969 L 139.167969 201.535156 L 139.167969 89.4375 Z M 137.203125 201.875 L 44.675781 156.4375 L 137.203125 89.542969 Z M 157.238281 310.808594 L 69.039062 261.359375 L 137.523438 205.265625 Z M 139.464844 204.945312 L 247.84375 243.101562 L 159.265625 310.941406 Z M 249.03125 244.667969 L 254.746094 325.789062 L 161.035156 312.058594 Z M 250.292969 240.546875 L 223.757812 143.875 L 313.992188 152.894531 Z M 315.25 154.507812 L 335.265625 260.234375 L 251.566406 242.136719 Z M 336.867188 258.148438 L 317.082031 153.621094 L 372.566406 174.269531 Z M 315.390625 149.824219 L 249.992188 57.761719 L 335.289062 76.269531 Z M 313.742188 150.898438 L 223.707031 141.894531 L 248.097656 58.484375 Z M 139.472656 86.226562 L 154.792969 11.554688 L 245.003906 56.019531 Z M 137.445312 86.332031 L 68.246094 63.183594 L 152.671875 12.117188 Z M 136.058594 87.941406 L 44.378906 154.226562 L 66.613281 64.710938 Z M 42.21875 154.761719 L 6.859375 122.558594 L 64.128906 66.566406 Z M 65.039062 62.925781 L 14.730469 112.117188 L 72.046875 37.675781 Z M 41.601562 156.859375 L 8.347656 236.398438 L 6.453125 124.84375 Z M 42.511719 159.78125 L 65.9375 260.007812 L 8.753906 240.515625 Z M 44.203125 158.394531 L 136.378906 203.660156 L 67.898438 259.75 Z M 156.042969 312.390625 L 78.066406 334.367188 L 68.535156 263.332031 Z M 158.066406 313.863281 L 187.121094 373.859375 L 80.472656 335.730469 Z M 189.425781 374.101562 L 160.285156 313.9375 L 253.285156 327.566406 Z M 256.660156 324.988281 L 250.957031 244.015625 L 334.296875 262.039062 Z M 333.96875 264.832031 L 300.078125 341.738281 L 257.789062 326.601562 Z M 337.210938 262.347656 L 365.996094 255.066406 L 304.882812 335.703125 Z M 316.976562 151.480469 L 336.664062 78.703125 L 372.183594 172.03125 Z M 255.042969 11.949219 L 332.597656 73.671875 L 248.820312 55.496094 Z M 187.304688 1.984375 L 239.804688 9.128906 L 162.183594 9.128906 Z M 253.183594 11.09375 L 246.9375 54.78125 L 158.304688 11.09375 Z M 67.527344 61.320312 L 75.140625 33.878906 L 146.386719 13.621094 Z M 2.074219 201.246094 L 4.910156 149.851562 L 6.222656 227.238281 Z M 40.3125 301.625 L 14.277344 252.011719 L 70.921875 328.710938 Z M 10.101562 243.050781 L 66.40625 262.246094 L 75.761719 331.953125 Z M 84.25 339.167969 L 178.957031 373.023438 L 121.132812 364.027344 Z M 255.96875 328.039062 L 297.425781 342.878906 L 194.1875 373.066406 Z M 255.96875 328.039062 " fill-opacity="1" fill-rule="nonzero"/></svg>