<svg xmlns="http://www.w3.org/2000/svg" xmlns:xlink="http://www.w3.org/1999/xlink" width="500" zoomAndPan="magnify" viewBox="0 0 375 374.999991" height="500" preserveAspectRatio="xMidYMid meet" version="1.0"><defs><clipPath id="f19f88aa20"><path d="M 3 34 L 370 34 L 370 363.785156 L 3 363.785156 Z M 3 34 " clip-rule="nonzero"/></clipPath><clipPath id="508c07e398"><path d="M 162.191406 6.984375 L 212.917969 6.984375 L 212.917969 55.988281 L 162.191406 55.988281 Z M 162.191406 6.984375 " clip-rule="nonzero"/></clipPath><clipPath id="fc9d0935d1"><path d="M 179.441406 6.984375 L 195.558594 6.984375 C 200.132812 6.984375 204.519531 8.804688 207.753906 12.039062 C 210.992188 15.273438 212.808594 19.660156 212.808594 24.234375 L 212.808594 38.738281 C 212.808594 43.3125 210.992188 47.699219 207.753906 50.9375 C 204.519531 54.171875 200.132812 55.988281 195.558594 55.988281 L 179.441406 55.988281 C 174.867188 55.988281 170.480469 54.171875 167.246094 50.9375 C 164.007812 47.699219 162.191406 43.3125 162.191406 38.738281 L 162.191406 24.234375 C 162.191406 19.660156 164.007812 15.273438 167.246094 12.039062 C 170.480469 8.804688 174.867188 6.984375 179.441406 6.984375 Z M 179.441406 6.984375 " clip-rule="nonzero"/></clipPath></defs><rect x="-37.5" width="450" fill="#ffffff" y="-37.499999" height="449.999989" fill-opacity="1"/><rect x="-37.5" width="450" fill="#040114" y="-37.499999" height="449.999989" fill-opacity="1"/><g clip-path="url(#f19f88aa20)"><path fill="#ffffff" d="M 185.289062 363.929688 C 185.496094 363.933594 185.699219 363.933594 185.90625 363.933594 C 199.683594 363.933594 213.730469 355.105469 235.730469 332.679688 C 236.703125 331.640625 333.082031 228.214844 358.566406 180.753906 L 358.617188 180.644531 C 360.214844 176.898438 361.621094 173.164062 362.855469 169.449219 C 362.957031 169.3125 363.035156 169.160156 363.046875 168.980469 C 363.050781 168.953125 363.039062 168.925781 363.039062 168.898438 C 379.035156 120.007812 363.664062 74.503906 321.347656 48.136719 L 321.265625 48.09375 C 278.796875 25.53125 257.285156 35.859375 232.378906 47.820312 C 221.226562 53.175781 209.695312 58.714844 195 62.289062 C 172.4375 64.273438 156.941406 56.34375 141.945312 48.675781 C 121.988281 38.476562 101.347656 27.925781 64.761719 41.421875 L 64.675781 41.457031 C 16.886719 62.964844 -4.050781 104.296875 5.710938 157.832031 L 5.746094 157.976562 C 16.871094 194.945312 33.253906 217.289062 122.625 317.390625 C 151.039062 348.65625 167.664062 363.59375 185.289062 363.929688 Z M 71.535156 255.195312 C 76.550781 249.117188 79.671875 245.015625 83.777344 238.382812 C 99.558594 250.050781 108.265625 257.628906 123.871094 271.210938 L 127.878906 274.695312 C 128.691406 287.105469 129.726562 304.945312 129.75 321.195312 C 128.082031 319.390625 126.375 317.523438 124.621094 315.59375 C 102.929688 291.300781 85.566406 271.613281 71.535156 255.195312 Z M 12.488281 169.53125 C 26.796875 168.691406 40.054688 168.917969 52.570312 169.835938 C 59.601562 189.707031 64.070312 198.921875 73.734375 218.851562 C 76.253906 224.046875 79.136719 229.984375 82.507812 237.03125 C 78.382812 243.726562 75.300781 247.8125 70.351562 253.8125 C 34.394531 211.640625 20.800781 191.296875 12.488281 169.53125 Z M 47.683594 99.40625 C 61.960938 103.695312 71.351562 106.347656 78.996094 108.507812 C 90.316406 111.703125 98.414062 113.988281 113.636719 119.132812 C 112.597656 137.347656 114.46875 151.992188 117.609375 176.550781 C 117.65625 176.902344 117.703125 177.265625 117.75 177.621094 C 116.070312 177.3125 114.394531 177.003906 112.722656 176.699219 C 94.0625 173.265625 75.007812 169.769531 53.910156 168.144531 C 48.066406 147.707031 43.734375 122.554688 47.683594 99.40625 Z M 69.375 61.03125 C 70.542969 60.980469 72.007812 60.917969 73.832031 60.878906 C 93.785156 61.347656 103.222656 63.433594 119.246094 69.035156 C 118.75 78.878906 118.292969 81.992188 116.691406 92.921875 C 116.203125 96.277344 115.601562 100.359375 114.859375 105.609375 C 114.363281 109.734375 114 113.585938 113.753906 117.28125 C 98.785156 112.234375 90.714844 109.953125 79.480469 106.78125 C 71.8125 104.617188 62.386719 101.953125 48.015625 97.636719 C 50.558594 84.25 55.945312 71.597656 65.527344 61.007812 C 66.398438 61.15625 67.574219 61.113281 69.375 61.03125 Z M 121.003906 69.769531 C 132.972656 75.203125 141.402344 79.867188 148.210938 83.636719 C 161.011719 90.722656 168.824219 95.042969 185.410156 96.8125 L 185.390625 135.757812 C 169.78125 135.398438 152.269531 130.777344 123.75 120.707031 C 120.777344 119.675781 118.050781 118.738281 115.511719 117.875 C 115.753906 114.070312 116.125 110.101562 116.636719 105.84375 C 117.375 100.613281 117.972656 96.535156 118.464844 93.183594 C 120.039062 82.429688 120.511719 79.179688 121.003906 69.769531 Z M 254.875 97.875 C 255.925781 103.195312 256.996094 108.601562 257.269531 117.875 C 253.121094 119.265625 249.222656 120.589844 245.605469 121.820312 C 219.699219 130.621094 204.40625 135.816406 187.179688 135.78125 L 187.199219 96.816406 C 205.527344 94.84375 217.1875 88.15625 229.519531 81.085938 C 236.582031 77.039062 243.742188 72.929688 252.402344 69.492188 C 252.15625 84.15625 253.527344 91.09375 254.875 97.875 Z M 254.207031 68.792969 C 265.511719 64.527344 279.40625 61.429688 298.773438 60.992188 C 300.640625 61.03125 302.105469 61.097656 303.269531 61.148438 C 305.070312 61.234375 306.25 61.273438 307.117188 61.128906 C 316.742188 71.785156 322.121094 84.523438 324.636719 97.992188 C 319.058594 99.609375 313.980469 101.007812 308.617188 102.488281 C 298.035156 105.40625 286.042969 108.714844 266.917969 114.667969 C 264.203125 115.558594 261.578125 116.429688 259.042969 117.277344 C 258.746094 108.199219 257.679688 102.824219 256.628906 97.527344 C 255.285156 90.730469 253.90625 83.777344 254.207031 68.792969 Z M 318.648438 168.210938 C 297.914062 169.785156 278.820312 173.273438 258.011719 177.078125 L 254.820312 177.664062 C 258.363281 148.117188 259.324219 130.746094 259.09375 119.152344 C 261.78125 118.25 264.574219 117.320312 267.464844 116.371094 C 286.546875 110.433594 298.527344 107.128906 309.09375 104.214844 C 314.40625 102.75 319.441406 101.359375 324.960938 99.761719 C 328.820312 122.84375 324.480469 147.878906 318.648438 168.210938 Z M 244.554688 274.753906 L 248.636719 271.207031 C 263.324219 258.4375 270.695312 252.03125 285.824219 240.59375 C 286.5 240.097656 287.039062 239.660156 287.484375 239.300781 C 287.9375 238.9375 288.445312 238.527344 288.671875 238.429688 C 288.953125 238.652344 289.550781 239.617188 290.179688 240.640625 C 290.980469 241.933594 292.074219 243.710938 293.757812 246.125 C 297.019531 250.550781 297.378906 250.988281 300.175781 254.398438 L 300.652344 254.980469 C 277.96875 282.160156 254.859375 307.828125 242.636719 321.210938 C 242.671875 305.066406 243.726562 287.199219 244.554688 274.753906 Z M 84.238281 236.496094 C 80.8125 229.339844 77.898438 223.324219 75.347656 218.070312 C 65.828125 198.445312 61.363281 189.238281 54.527344 169.996094 C 75.246094 171.636719 94.019531 175.078125 112.398438 178.460938 C 114.253906 178.800781 116.117188 179.144531 117.984375 179.484375 C 120.664062 200.449219 124.195312 228.820312 127.679688 272.148438 L 125.046875 269.859375 C 109.210938 256.078125 100.457031 248.460938 84.238281 236.496094 Z M 129.613281 273.824219 C 126.109375 229.816406 122.542969 201.042969 119.835938 179.820312 C 140.351562 183.554688 161.664062 187.070312 185.363281 187.652344 L 185.363281 187.695312 L 185.304688 305.410156 C 163.375 302.867188 148.660156 290.210938 130.101562 274.246094 Z M 119.386719 176.324219 C 116.289062 152.105469 114.433594 137.570312 115.398438 119.730469 C 117.800781 120.546875 120.375 121.429688 123.160156 122.398438 C 151.953125 132.566406 169.628906 137.230469 185.386719 137.589844 L 185.363281 185.855469 C 161.601562 185.265625 140.203125 181.710938 119.597656 177.957031 C 119.527344 177.410156 119.457031 176.863281 119.386719 176.324219 Z M 252.976562 178 C 229.660156 182.222656 212.570312 185.277344 187.15625 185.863281 L 187.179688 137.613281 C 187.242188 137.613281 187.300781 137.613281 187.359375 137.613281 C 204.679688 137.613281 220.109375 132.371094 246.183594 123.515625 C 249.644531 122.339844 253.363281 121.074219 257.3125 119.75 C 257.503906 131.328125 256.507812 148.65625 252.976562 178 Z M 187.152344 187.652344 C 212.527344 187.070312 229.621094 184.046875 252.753906 179.859375 C 248.453125 215.617188 245.597656 239.433594 242.820312 273.882812 L 241.933594 274.644531 C 223.585938 290.398438 209.03125 302.882812 187.097656 305.40625 Z M 288.183594 236.703125 C 287.640625 236.875 287.101562 237.308594 286.359375 237.90625 C 285.933594 238.253906 285.414062 238.671875 284.753906 239.15625 C 269.566406 250.636719 262.179688 257.058594 247.460938 269.851562 L 244.753906 272.203125 C 247.496094 238.589844 250.339844 214.933594 254.597656 179.523438 L 258.335938 178.84375 C 278.835938 175.089844 297.660156 171.648438 318.035156 170.054688 C 311.160156 189.347656 306.695312 198.53125 297.167969 218.125 C 294.59375 223.414062 291.648438 229.476562 288.183594 236.703125 Z M 131.535156 323.125 C 131.59375 307.0625 130.605469 289.171875 129.78125 276.332031 C 148.230469 292.199219 163.0625 304.695312 185.304688 307.207031 L 185.277344 361.242188 C 170.089844 360.917969 155.246094 348.632812 131.535156 323.125 Z M 233.792969 330.820312 C 213.019531 351.996094 199.710938 360.710938 187.070312 361.21875 L 187.097656 307.214844 C 209.503906 304.710938 224.222656 292.210938 242.648438 276.390625 C 241.808594 289.277344 240.796875 307.207031 240.851562 323.164062 C 236.527344 327.886719 233.941406 330.660156 233.792969 330.820312 Z M 356.167969 179.535156 C 345.933594 198.574219 324.1875 226.714844 301.820312 253.582031 L 301.558594 253.261719 C 298.789062 249.882812 298.433594 249.449219 295.210938 245.082031 C 293.570312 242.726562 292.492188 240.976562 291.707031 239.699219 C 290.929688 238.441406 290.433594 237.640625 289.945312 237.167969 C 293.347656 230.082031 296.246094 224.121094 298.777344 218.910156 C 308.449219 199.019531 312.921875 189.824219 319.984375 169.910156 C 332.449219 169.011719 345.53125 168.820312 359.945312 169.683594 C 358.828125 172.953125 357.574219 176.242188 356.167969 179.535156 Z M 360.527344 167.925781 C 346.097656 167.042969 333.007812 167.203125 320.550781 168.070312 C 326.371094 147.558594 330.617188 122.460938 326.6875 99.257812 C 334.792969 96.890625 344.070312 94.023438 356.789062 89.804688 C 368.191406 112.523438 369.738281 139.632812 360.527344 167.925781 Z M 355.957031 88.191406 C 343.492188 92.324219 334.351562 95.152344 326.363281 97.488281 C 323.8125 83.949219 318.398438 71.125 308.785156 60.320312 C 309.261719 59.859375 309.699219 59.183594 310.277344 58.199219 C 310.582031 57.683594 310.941406 57.070312 311.429688 56.304688 L 311.65625 55.90625 C 313.101562 53.398438 314.660156 50.414062 315.058594 47.949219 C 316.664062 48.734375 318.289062 49.554688 319.964844 50.441406 C 336.058594 60.480469 348.136719 73.367188 355.957031 88.191406 Z M 313.355469 47.125 C 313.199219 49.644531 310.917969 53.597656 310.105469 55.011719 L 309.894531 55.382812 C 309.417969 56.132812 309.046875 56.761719 308.734375 57.289062 C 307.847656 58.792969 306.054688 59.484375 303.351562 59.359375 C 302.171875 59.308594 300.695312 59.242188 298.773438 59.203125 C 279.675781 59.628906 265.617188 62.734375 254.253906 66.917969 C 254.445312 60.015625 254.980469 51.484375 256.003906 40.660156 C 271.644531 35.644531 288.457031 35.296875 313.355469 47.125 Z M 195.339844 64.957031 L 195.535156 64.925781 C 210.550781 61.285156 222.765625 55.417969 233.542969 50.242188 C 240.632812 46.839844 247.304688 43.636719 254.144531 41.273438 C 253.132812 52.144531 252.617188 60.691406 252.441406 67.601562 C 243.167969 71.195312 235.691406 75.484375 228.628906 79.53125 C 216.511719 86.480469 205.039062 93.039062 187.199219 95 L 187.21875 65.414062 L 187.21875 65.277344 C 189.824219 65.304688 192.527344 65.207031 195.339844 64.957031 Z M 185.425781 65.238281 L 185.410156 95.015625 C 169.308594 93.269531 161.632812 89.019531 149.082031 82.070312 C 142.121094 78.214844 133.484375 73.433594 121.097656 67.84375 L 121.101562 67.789062 L 121.0625 67.773438 C 120.929688 55.722656 120.03125 50.355469 119.238281 45.609375 C 118.992188 44.132812 118.753906 42.707031 118.558594 41.171875 C 126.332031 43.71875 133.457031 47.355469 140.722656 51.070312 C 153.804688 57.757812 167.273438 64.628906 185.425781 65.238281 Z M 65.734375 43.925781 C 87.507812 35.902344 103.148438 36.515625 116.6875 40.582031 C 116.902344 42.46875 117.179688 44.152344 117.46875 45.90625 C 118.238281 50.496094 119.101562 55.699219 119.261719 67.144531 C 103.390625 61.625 93.824219 59.558594 73.835938 59.089844 C 71.953125 59.125 70.472656 59.191406 69.296875 59.242188 C 66.597656 59.363281 64.804688 58.671875 63.917969 57.167969 C 63.605469 56.636719 63.234375 56.007812 62.785156 55.296875 L 62.550781 54.890625 C 61.742188 53.488281 59.492188 49.574219 59.308594 47.054688 C 61.398438 45.972656 63.527344 44.921875 65.738281 43.925781 Z M 57.621094 47.925781 C 58.039062 50.371094 59.574219 53.3125 60.996094 55.78125 L 61.246094 56.21875 C 61.707031 56.949219 62.070312 57.558594 62.371094 58.074219 C 62.949219 59.058594 63.386719 59.734375 63.863281 60.199219 C 54.292969 70.929688 48.871094 83.664062 46.292969 97.117188 C 38.117188 94.652344 28.382812 91.664062 16.550781 87.953125 C 25.140625 71.5 38.921875 57.957031 57.621094 47.925781 Z M 15.722656 89.574219 C 27.78125 93.351562 37.671875 96.390625 45.957031 98.886719 C 41.9375 122.15625 46.175781 147.375 52.007812 167.996094 C 39.46875 167.105469 26.179688 166.902344 11.828125 167.769531 C 10.570312 164.351562 9.425781 160.882812 8.339844 157.273438 C 3.652344 131.5 6.273438 108.640625 15.722656 89.574219 Z M 15.722656 89.574219 " fill-opacity="1" fill-rule="nonzero"/></g><path stroke-linecap="butt" transform="matrix(0.740338, -0.119996, 0.119996, 0.740338, 187.259935, 24.054624)" fill="none" stroke-linejoin="miter" d="M 0.000126808 1.999825 L 71.156484 1.999061 " stroke="#040114" stroke-width="4" stroke-opacity="1" stroke-miterlimit="4"/><g clip-path="url(#508c07e398)"><g clip-path="url(#fc9d0935d1)"><path fill="#000000" d="M 162.191406 6.984375 L 212.726562 6.984375 L 212.726562 55.988281 L 162.191406 55.988281 Z M 162.191406 6.984375 " fill-opacity="1" fill-rule="nonzero"/></g></g></svg>